<?xml version="1.0" encoding="UTF-8" standalone="no"?>
<!-- Created with Inkscape (http://www.inkscape.org/) -->

<svg
   xmlns:dc="http://purl.org/dc/elements/1.1/"
   xmlns:cc="http://creativecommons.org/ns#"
   xmlns:rdf="http://www.w3.org/1999/02/22-rdf-syntax-ns#"
   xmlns:svg="http://www.w3.org/2000/svg"
   xmlns="http://www.w3.org/2000/svg"
   xmlns:sodipodi="http://sodipodi.sourceforge.net/DTD/sodipodi-0.dtd"
   xmlns:inkscape="http://www.inkscape.org/namespaces/inkscape"
   width="512"
   height="512"
   viewBox="0 0 511.99999 511.99999"
   id="svg2"
   version="1.1"
   inkscape:version="0.91 r13725"
   sodipodi:docname="icon_svg.svg"
   inkscape:export-filename="D:\Dropbox\Files\Code\Chrome Extensions\rFormula1 Sidebar Spolier Stopper\code\images\icon_38.png"
   inkscape:export-xdpi="6.970108"
   inkscape:export-ydpi="6.970108">
  <defs
     id="defs4" />
  <sodipodi:namedview
     id="base"
     pagecolor="#ffffff"
     bordercolor="#666666"
     borderopacity="1.0"
     inkscape:pageopacity="0.0"
     inkscape:pageshadow="2"
     inkscape:zoom="0.98994949"
     inkscape:cx="298.23183"
     inkscape:cy="232.52929"
     inkscape:document-units="px"
     inkscape:current-layer="layer1"
     showgrid="false"
     units="px"
     inkscape:window-width="1858"
     inkscape:window-height="1057"
     inkscape:window-x="54"
     inkscape:window-y="-8"
     inkscape:window-maximized="1" />
  <metadata
     id="metadata7">
    <rdf:RDF>
      <cc:Work
         rdf:about="">
        <dc:format>image/svg+xml</dc:format>
        <dc:type
           rdf:resource="http://purl.org/dc/dcmitype/StillImage" />
        <dc:title />
      </cc:Work>
    </rdf:RDF>
  </metadata>
  <g
     inkscape:label="Layer 1"
     inkscape:groupmode="layer"
     id="layer1"
     transform="translate(0,-540.36219)">
    <path
       style="fill:#0f0f0f;fill-opacity:1;stroke:none;stroke-width:0;stroke-miterlimit:4;stroke-dasharray:none;stroke-opacity:1"
       d="m 50.002262,835.49463 a 210.26973,210.26973 0 0 0 24.160108,64.00778 l 79.51954,10e-6 0,-103.67969 -103.679639,-10e-6 -9e-6,39.67191 z m 103.679648,-39.6719 103.67968,0 0,-103.67968 -103.67969,0 10e-6,103.67968 z m -10e-6,-103.67968 -1e-5,-81.04686 a 210.26973,210.26973 0 0 0 -81.236319,81.04686 l 81.236329,0 z m 103.67969,0 103.67968,0 -2e-5,-79.60352 A 210.26973,210.26973 0 0 0 298.00417,588.4634 l -40.64259,0 10e-6,103.67965 z m 103.67968,0 0,103.67968 103.67979,2e-5 0,-24.87695 a 210.26973,210.26973 0 0 0 -25.295,-78.80276 l -78.38479,10e-6 z m 0,103.67968 -103.67968,0 -2e-5,103.67969 103.6797,10e-6 0,-103.6797 z m 0,103.6797 3e-5,76.85742 a 210.26973,210.26973 0 0 0 76.9414,-76.8574 l -76.94141,0 z m -103.6797,-10e-6 -103.67966,0 -10e-6,78.57422 a 210.26973,210.26973 0 0 0 77.85549,25.10546 l 25.8242,0 -2e-5,-103.67968 z"
       id="rect4706"
       inkscape:connector-curvature="0"
       inkscape:export-xdpi="8.2465534"
       inkscape:export-ydpi="8.2465534" />
    <flowRoot
       xml:space="preserve"
       id="flowRoot4812"
       style="fill:black;stroke:none;stroke-opacity:1;stroke-width:1px;stroke-linejoin:miter;stroke-linecap:butt;fill-opacity:1;font-family:sans-serif;font-style:normal;font-weight:normal;font-size:40px;line-height:125%;letter-spacing:0px;word-spacing:0px"><flowRegion
         id="flowRegion4814"><rect
           id="rect4816"
           width="834.38599"
           height="583.86816"
           x="-537.40112"
           y="570.58887" /></flowRegion><flowPara
         id="flowPara4818"></flowPara></flowRoot>    <flowRoot
       xml:space="preserve"
       id="flowRoot4820"
       style="fill:black;stroke:none;stroke-opacity:1;stroke-width:1px;stroke-linejoin:miter;stroke-linecap:butt;fill-opacity:1;font-family:sans-serif;font-style:normal;font-weight:normal;font-size:40px;line-height:125%;letter-spacing:0px;word-spacing:0px"><flowRegion
         id="flowRegion4822"><rect
           id="rect4824"
           width="688.92401"
           height="391.93918"
           x="-505.07626"
           y="594.83252" /></flowRegion><flowPara
         id="flowPara4826"></flowPara></flowRoot>    <flowRoot
       xml:space="preserve"
       id="flowRoot4828"
       style="fill:black;stroke:none;stroke-opacity:1;stroke-width:1px;stroke-linejoin:miter;stroke-linecap:butt;fill-opacity:1;font-family:sans-serif;font-style:normal;font-weight:normal;font-size:40px;line-height:125%;letter-spacing:0px;word-spacing:0px"><flowRegion
         id="flowRegion4830"><rect
           id="rect4832"
           width="1444.5182"
           height="533.36053"
           x="-668.72101"
           y="619.07617" /></flowRegion><flowPara
         id="flowPara4834"></flowPara></flowRoot>    <flowRoot
       xml:space="preserve"
       id="flowRoot4836"
       style="fill:black;stroke:none;stroke-opacity:1;stroke-width:1px;stroke-linejoin:miter;stroke-linecap:butt;fill-opacity:1;font-family:sans-serif;font-style:normal;font-weight:normal;font-size:40px;line-height:125%;letter-spacing:0px;word-spacing:0px"><flowRegion
         id="flowRegion4838"><rect
           id="rect4840"
           width="1921.3102"
           height="577.80725"
           x="-674.78192"
           y="582.71069" /></flowRegion><flowPara
         id="flowPara4842"></flowPara></flowRoot>    <circle
       style="fill:none;fill-opacity:1;stroke:#cc0000;stroke-width:75;stroke-linejoin:round;stroke-miterlimit:4;stroke-dasharray:none;stroke-opacity:1"
       id="path4852"
       cx="256"
       cy="796.36218"
       r="207.83336" />
    <rect
       style="fill:#cc0000;fill-opacity:1;stroke:none;stroke-width:64;stroke-linejoin:round;stroke-miterlimit:4;stroke-dasharray:none;stroke-opacity:1"
       id="rect4854"
       width="450"
       height="75"
       x="519.13245"
       y="344.59375"
       transform="matrix(0.70710678,0.70710678,-0.70710678,0.70710678,0,0)" />
  </g>
</svg>
