<?xml version="1.0" encoding="utf-8"?>
<!-- Generator: Adobe Illustrator 16.0.0, SVG Export Plug-In . SVG Version: 6.00 Build 0)  -->
<!DOCTYPE svg PUBLIC "-//W3C//DTD SVG 1.1//EN" "http://www.w3.org/Graphics/SVG/1.1/DTD/svg11.dtd">
<svg version="1.1" id="Layer_1" xmlns="http://www.w3.org/2000/svg" xmlns:xlink="http://www.w3.org/1999/xlink" x="0px" y="0px"
	 width="512px" height="512px" viewBox="0 0 512 512" enable-background="new 0 0 512 512" xml:space="preserve">
<path fill="#282829" d="M512,126.473C511.17,56.494,454.195,0.02,384.02,0.02H512V0H127.961C57.287,0.021,0,57.32,0,128v257.489
	C0.811,455.486,57.793,511.98,127.981,511.98H0V512h384.039C454.713,511.979,512,454.68,512,384V126.473z M480,384
	c0,52.919-43.053,95.984-95.961,96H127.981v-0.02c-25.444,0-49.416-9.854-67.501-27.745C42.448,434.396,32.338,410.627,32,385.29
	V128c0-52.919,43.052-95.984,95.961-96H384.02v0.02c25.438,0,49.408,9.85,67.492,27.736c18.029,17.832,28.146,41.589,28.488,66.918
	V384z"/>
<g id="checkerboard">
	<g>
		<g>
			<g>
				<defs>
					<path id="SVGID_1_" d="M384.02,0.02H512V0H127.961C57.287,0.021,0,57.32,0,128v257.489
						C0.811,455.486,57.793,511.98,127.981,511.98H0V512h384.039C454.713,511.979,512,454.68,512,384V126.473
						C511.17,56.494,454.195,0.02,384.02,0.02z"/>
				</defs>
				<clipPath id="SVGID_2_">
					<use xlink:href="#SVGID_1_"  overflow="visible"/>
				</clipPath>
				<g clip-path="url(#SVGID_2_)">
					
						<rect x="89.681" y="360.766" transform="matrix(-0.9816 0.1908 -0.1908 -0.9816 353.6754 786.0995)" fill="#282829" width="98.622" height="98.62"/>
					
						<rect x="167.681" y="245.129" transform="matrix(-0.9816 0.1908 -0.1908 -0.9816 486.1792 542.0673)" fill="#282829" width="98.623" height="98.622"/>
					
						<rect x="283.314" y="323.127" transform="matrix(-0.9816 0.1908 -0.1908 -0.9816 730.2026 674.5686)" fill="#282829" width="98.623" height="98.622"/>
					
						<rect x="361.315" y="207.489" transform="matrix(-0.9816 0.1908 -0.1908 -0.9816 862.7073 430.5308)" fill="#282829" width="98.622" height="98.621"/>
					
						<rect x="52.045" y="167.132" transform="matrix(-0.9816 0.1908 -0.1908 -0.9816 242.1498 409.5699)" fill="#282829" width="98.622" height="98.622"/>
					
						<rect x="130.044" y="51.496" transform="matrix(-0.9816 0.1908 -0.1908 -0.9816 374.6496 165.5404)" fill="#282829" width="98.622" height="98.622"/>
					
						<rect x="245.679" y="129.494" transform="matrix(-0.9816 0.1908 -0.1908 -0.9816 618.6776 298.0403)" fill="#282829" width="98.623" height="98.623"/>
					
						<rect x="323.677" y="13.86" transform="matrix(-0.9816 0.1908 -0.1908 -0.9816 751.1764 54.0148)" fill="#282829" width="98.622" height="98.622"/>
					
						<rect x="14.409" y="-26.502" transform="matrix(-0.9816 0.1908 -0.1908 -0.9816 130.6208 33.0407)" fill="#282829" width="98.622" height="98.622"/>
					
						<rect x="92.407" y="-142.136" transform="matrix(-0.9816 0.1908 -0.1908 -0.9816 263.1216 -210.9848)" fill="#282829" width="98.622" height="98.622"/>
					
						<rect x="208.043" y="-64.14" transform="matrix(-0.9816 0.1908 -0.1908 -0.9816 507.1504 -78.4893)" fill="#282829" width="98.622" height="98.622"/>
					
						<rect x="286.041" y="-179.772" transform="matrix(-0.9816 0.1908 -0.1908 -0.9816 639.6479 -322.5126)" fill="#282829" width="98.62" height="98.623"/>
					
						<rect x="127.328" y="554.392" transform="matrix(-0.9816 0.1908 -0.1908 -0.9816 465.2212 1162.6117)" fill="#282829" width="98.621" height="98.621"/>
					
						<rect x="205.326" y="438.755" transform="matrix(-0.9816 0.1908 -0.1908 -0.9816 597.7203 918.5797)" fill="#282829" width="98.622" height="98.623"/>
					
						<rect x="320.952" y="516.76" transform="matrix(-0.9816 0.1908 -0.1908 -0.9816 841.7364 1051.0903)" fill="#282829" width="98.623" height="98.621"/>
					
						<rect x="398.945" y="401.133" transform="matrix(-0.9816 0.1908 -0.1908 -0.9816 974.2231 807.0831)" fill="#282829" width="98.622" height="98.621"/>
					
						<rect x="476.948" y="285.493" transform="matrix(-0.9816 0.1908 -0.1908 -0.9816 1106.7312 563.0451)" fill="#282829" width="98.621" height="98.622"/>
					
						<rect x="554.947" y="169.852" transform="matrix(-0.9816 0.1908 -0.1908 -0.9816 1239.2319 319.0007)" fill="#282829" width="98.622" height="98.621"/>
					
						<rect x="439.312" y="91.859" transform="matrix(-0.9816 0.1908 -0.1908 -0.9816 995.204 186.5146)" fill="#282829" width="98.621" height="98.622"/>
					
						<rect x="517.309" y="-23.777" transform="matrix(-0.9816 0.1908 -0.1908 -0.9816 1127.7036 -57.5127)" fill="#282829" width="98.622" height="98.622"/>
					
						<rect x="401.675" y="-101.775" transform="matrix(-0.9816 0.1908 -0.1908 -0.9816 883.6761 -190.0119)" fill="#282829" width="98.621" height="98.624"/>
					
						<rect x="479.675" y="-217.408" transform="matrix(-0.9816 0.1908 -0.1908 -0.9816 1016.179 -434.0388)" fill="#282829" width="98.622" height="98.622"/>
					
						<rect x="514.583" y="479.124" transform="matrix(-0.9816 0.1908 -0.1908 -0.9816 1218.2603 939.5652)" fill="#282829" width="98.623" height="98.624"/>
					
						<rect x="592.588" y="363.476" transform="matrix(-0.9816 0.1908 -0.1908 -0.9816 1350.7654 695.5137)" fill="#282829" width="98.621" height="98.621"/>
					
						<rect x="-103.948" y="398.401" transform="matrix(-0.9816 0.1908 -0.1908 -0.9816 -22.8405 897.6212)" fill="#282829" width="98.623" height="98.62"/>
					
						<rect x="-25.949" y="282.765" transform="matrix(-0.9816 0.1908 -0.1908 -0.9816 109.6601 653.592)" fill="#282829" width="98.622" height="98.621"/>
					
						<rect x="-141.588" y="204.768" transform="matrix(-0.9816 0.1908 -0.1908 -0.9816 -134.3769 521.0964)" fill="#282829" width="98.623" height="98.622"/>
					
						<rect x="-63.589" y="89.134" transform="matrix(-0.9816 0.1908 -0.1908 -0.9816 -1.8769 277.0699)" fill="#282829" width="98.622" height="98.622"/>
					
						<rect x="-179.223" y="11.135" transform="matrix(-0.9816 0.1908 -0.1908 -0.9816 -245.9027 144.5707)" fill="#282829" width="98.622" height="98.622"/>
					
						<rect x="-101.225" y="-104.5" transform="matrix(-0.9816 0.1908 -0.1908 -0.9816 -113.4037 -99.4592)" fill="#282829" width="98.622" height="98.622"/>
					
						<rect x="-66.32" y="592.034" transform="matrix(-0.9816 0.1908 -0.1908 -0.9816 88.6706 1274.1523)" fill="#282829" width="98.623" height="98.623"/>
					
						<rect x="11.677" y="476.4" transform="matrix(-0.9816 0.1908 -0.1908 -0.9816 221.163 1030.1281)" fill="#282829" width="98.622" height="98.622"/>
				</g>
			</g>
		</g>
	</g>
</g>
<g id="blocking_enabled">
	<path fill="#ED1C24" d="M255.32,19.307c-131.168,0-237.5,106.332-237.5,237.5c0,131.17,106.332,237.5,237.5,237.5
		c131.167,0,237.5-106.33,237.5-237.5C492.82,125.639,386.486,19.307,255.32,19.307z M366.689,145.438
		c29.745,29.748,46.131,69.299,46.131,111.369c0,28.387-7.472,55.619-21.457,79.477L175.847,120.764
		c23.854-13.988,51.088-21.457,79.473-21.457C297.391,99.307,336.941,115.689,366.689,145.438z M143.951,368.177
		c-29.748-29.747-46.131-69.3-46.131-111.37c0-28.385,7.469-55.619,21.459-79.475L334.795,392.85
		c-23.854,13.988-51.09,21.457-79.475,21.457C213.25,414.307,173.699,397.924,143.951,368.177z"/>
</g>
</svg>
