<?xml version="1.0" encoding="utf-8"?>
<!-- Generator: Adobe Illustrator 16.0.0, SVG Export Plug-In . SVG Version: 6.00 Build 0)  -->
<!DOCTYPE svg PUBLIC "-//W3C//DTD SVG 1.1//EN" "http://www.w3.org/Graphics/SVG/1.1/DTD/svg11.dtd">
<svg version="1.1" xmlns="http://www.w3.org/2000/svg" xmlns:xlink="http://www.w3.org/1999/xlink" x="0px" y="0px" width="512px"
	 height="512px" viewBox="0 0 512 512" enable-background="new 0 0 512 512" xml:space="preserve">
<g id="checkerboard">
	<defs>
		<path id="SVGID_1_" d="M384.02,0.02H512V0H127.961C57.287,0.021,0,57.32,0,128v257.489
			C0.811,455.486,57.793,511.98,127.981,511.98H0V512h384.039C454.713,511.979,512,454.68,512,384V126.473
			C511.17,56.494,454.195,0.02,384.02,0.02z"/>
	</defs>
	<clipPath id="SVGID_2_">
		<use xlink:href="#SVGID_1_"  overflow="visible"/>
	</clipPath>
	<g clip-path="url(#SVGID_2_)">
		
			<rect x="89.686" y="360.769" transform="matrix(0.9816 -0.1908 0.1908 0.9816 -75.6967 34.0587)" fill="#282829" width="98.631" height="98.631"/>
		
			<rect x="167.685" y="245.131" transform="matrix(0.9816 -0.1908 0.1908 0.9816 -52.1974 46.8169)" fill="#282829" width="98.632" height="98.631"/>
		
			<rect x="283.323" y="323.129" transform="matrix(0.9816 -0.1908 0.1908 0.9816 -64.956 70.3156)" fill="#282829" width="98.632" height="98.632"/>
		
			<rect x="361.323" y="207.491" transform="matrix(0.9816 -0.1908 0.1908 0.9816 -41.456 83.0706)" fill="#282829" width="98.63" height="98.631"/>
		
			<rect x="52.046" y="167.131" transform="matrix(0.9816 -0.1908 0.1908 0.9816 -39.438 23.3176)" fill="#282829" width="98.631" height="98.631"/>
		
			<rect x="130.045" y="51.493" transform="matrix(0.9816 -0.1908 0.1908 0.9816 -15.9399 36.0762)" fill="#282829" width="98.631" height="98.631"/>
		
			<rect x="245.684" y="129.491" transform="matrix(0.9816 -0.1908 0.1908 0.9816 -28.6987 59.5755)" fill="#282829" width="98.632" height="98.632"/>
		
			<rect x="323.683" y="13.853" transform="matrix(0.9816 -0.1908 0.1908 0.9816 -5.2002 72.3324)" fill="#282829" width="98.631" height="98.631"/>
		
			<rect x="14.407" y="-26.506" transform="matrix(0.9816 -0.1908 0.1908 0.9816 -3.1814 12.578)" fill="#282829" width="98.631" height="98.631"/>
		
			<rect x="92.406" y="-142.145" transform="matrix(0.9816 -0.1908 0.1908 0.9816 20.3167 25.3364)" fill="#282829" width="98.631" height="98.631"/>
		
			<rect x="208.045" y="-64.146" transform="matrix(0.9816 -0.1908 0.1908 0.9816 7.5582 48.8343)" fill="#282829" width="98.631" height="98.631"/>
		
			<rect x="286.044" y="-179.784" transform="matrix(0.9816 -0.1908 0.1908 0.9816 31.0556 61.5918)" fill="#282829" width="98.63" height="98.631"/>
		
			<rect x="127.325" y="554.407" transform="matrix(0.9816 -0.1908 0.1908 0.9816 -111.9435 44.7931)" fill="#282829" width="98.63" height="98.631"/>
		
			<rect x="205.324" y="438.769" transform="matrix(0.9816 -0.1908 0.1908 0.9816 -88.4463 57.5502)" fill="#282829" width="98.631" height="98.63"/>
		
			<rect x="320.963" y="516.768" transform="matrix(0.9816 -0.1908 0.1908 0.9816 -101.2133 81.0555)" fill="#282829" width="98.632" height="98.63"/>
		
			<rect x="398.962" y="401.129" transform="matrix(0.9816 -0.1908 0.1908 0.9816 -77.7153 93.8151)" fill="#282829" width="98.631" height="98.631"/>
		
			<rect x="476.961" y="285.49" transform="matrix(0.9816 -0.1908 0.1908 0.9816 -54.2164 106.5738)" fill="#282829" width="98.631" height="98.631"/>
		
			<rect x="554.961" y="169.852" transform="matrix(0.9816 -0.1908 0.1908 0.9816 -30.7166 119.3264)" fill="#282829" width="98.63" height="98.63"/>
		
			<rect x="439.322" y="91.853" transform="matrix(0.9816 -0.1908 0.1908 0.9816 -17.9583 95.8279)" fill="#282829" width="98.631" height="98.631"/>
		
			<rect x="517.321" y="-23.786" transform="matrix(0.9816 -0.1908 0.1908 0.9816 5.5396 108.5887)" fill="#282829" width="98.631" height="98.631"/>
		
			<rect x="401.682" y="-101.785" transform="matrix(0.9816 -0.1908 0.1908 0.9816 18.2979 85.0907)" fill="#282829" width="98.631" height="98.631"/>
		
			<rect x="479.681" y="-217.424" transform="matrix(0.9816 -0.1908 0.1908 0.9816 41.7972 97.8514)" fill="#282829" width="98.632" height="98.631"/>
		
			<rect x="514.6" y="479.127" transform="matrix(0.9816 -0.1908 0.1908 0.9816 -90.4732 117.3127)" fill="#282829" width="98.632" height="98.632"/>
		
			<rect x="592.6" y="363.489" transform="matrix(0.9816 -0.1908 0.1908 0.9816 -66.9696 130.0589)" fill="#282829" width="98.63" height="98.631"/>
		
			<rect x="-103.952" y="398.409" transform="matrix(0.9816 -0.1908 0.1908 0.9816 -86.4278 -2.1996)" fill="#282829" width="98.631" height="98.63"/>
		
			<rect x="-25.953" y="282.77" transform="matrix(0.9816 -0.1908 0.1908 0.9816 -62.9342 10.5588)" fill="#282829" width="98.631" height="98.63"/>
		
			<rect x="-141.592" y="204.77" transform="matrix(0.9816 -0.1908 0.1908 0.9816 -50.1787 -12.9391)" fill="#282829" width="98.632" height="98.632"/>
		
			<rect x="-63.592" y="89.132" transform="matrix(0.9816 -0.1908 0.1908 0.9816 -26.6797 -0.1805)" fill="#282829" width="98.631" height="98.631"/>
		
			<rect x="-179.231" y="11.133" transform="matrix(0.9816 -0.1908 0.1908 0.9816 -13.9207 -23.678)" fill="#282829" width="98.631" height="98.631"/>
		
			<rect x="-101.231" y="-104.505" transform="matrix(0.9816 -0.1908 0.1908 0.9816 9.5767 -10.9198)" fill="#282829" width="98.631" height="98.631"/>
		
			<rect x="-66.313" y="592.045" transform="matrix(0.9816 -0.1908 0.1908 0.9816 -122.6932 8.541)" fill="#282829" width="98.632" height="98.632"/>
		
			<rect x="11.686" y="476.408" transform="matrix(0.9816 -0.1908 0.1908 0.9816 -99.1952 21.2998)" fill="#282829" width="98.631" height="98.631"/>
	</g>
</g>
<g id="bg_x5F_path">
	<g>
		<path fill="#282829" d="M384.02,32v0.02c25.438,0,49.408,9.85,67.492,27.736c18.029,17.832,28.143,41.589,28.488,66.918V384
			c0,52.919-43.053,95.984-95.961,96H127.981v-0.02c-25.444,0-49.416-9.854-67.501-27.745C42.448,434.396,32.338,410.627,32,385.29
			V128c0-52.919,43.052-95.984,95.961-96H384.02 M512,0H127.961C57.287,0.021,0,57.32,0,128v257.489
			C0.811,455.486,57.793,511.98,127.981,511.98H0V512h384.039C454.713,511.979,512,454.68,512,384V126.473
			C511.17,56.494,454.195,0.02,384.02,0.02H512V0L512,0z"/>
	</g>
</g>
<g id="blocking_enabled">
	<path fill="#C52026" stroke="#FFFFFF" stroke-width="8" stroke-miterlimit="10" d="M255.32,19.307
		c-131.168,0-237.5,106.332-237.5,237.5c0,131.169,106.332,237.5,237.5,237.5c131.167,0,237.5-106.331,237.5-237.5
		C492.82,125.639,386.486,19.307,255.32,19.307z M366.689,145.438c29.748,29.748,46.131,69.299,46.131,111.369
		c0,28.386-7.469,55.619-21.457,79.474L175.847,120.764c23.854-13.988,51.088-21.457,79.473-21.457
		C297.391,99.307,336.941,115.689,366.689,145.438z M143.951,368.177c-29.748-29.748-46.131-69.3-46.131-111.37
		c0-28.385,7.469-55.619,21.459-79.475l215.516,215.517c-23.855,13.989-51.09,21.458-79.475,21.458
		C213.25,414.307,173.699,397.924,143.951,368.177z"/>
</g>
</svg>
