<?xml version="1.0" encoding="utf-8"?>
<!-- Generator: Adobe Illustrator 16.0.0, SVG Export Plug-In . SVG Version: 6.00 Build 0)  -->
<!DOCTYPE svg PUBLIC "-//W3C//DTD SVG 1.1//EN" "http://www.w3.org/Graphics/SVG/1.1/DTD/svg11.dtd">
<svg version="1.1" id="Layer_1" xmlns="http://www.w3.org/2000/svg" xmlns:xlink="http://www.w3.org/1999/xlink" x="0px" y="0px"
	 width="512px" height="512px" viewBox="0 0 512 512" enable-background="new 0 0 512 512" xml:space="preserve">
<g id="checkerboard">
	<g>
		<defs>
			<path id="SVGID_1_" d="M384.02,0.02H512V0H127.961C57.287,0.021,0,57.32,0,128v257.489
				C0.811,455.486,57.793,511.98,127.981,511.98H0V512h384.039C454.713,511.979,512,454.68,512,384V126.473
				C511.17,56.494,454.195,0.02,384.02,0.02z"/>
		</defs>
		<clipPath id="SVGID_2_">
			<use xlink:href="#SVGID_1_"  overflow="visible"/>
		</clipPath>
		<g clip-path="url(#SVGID_2_)">
			
				<rect x="89.677" y="360.762" transform="matrix(-0.9816 0.1908 -0.1908 -0.9816 353.6759 786.0978)" fill="#282829" width="98.628" height="98.628"/>
			
				<rect x="167.676" y="245.128" transform="matrix(-0.9816 0.1908 -0.1908 -0.9816 486.1775 542.0701)" fill="#282829" width="98.629" height="98.628"/>
			
				<rect x="283.31" y="323.126" transform="matrix(-0.9816 0.1908 -0.1908 -0.9816 730.2036 674.5704)" fill="#282829" width="98.629" height="98.629"/>
			
				<rect x="361.311" y="207.488" transform="matrix(-0.9816 0.1908 -0.1908 -0.9816 862.7047 430.5378)" fill="#282829" width="98.627" height="98.628"/>
			
				<rect x="52.042" y="167.127" transform="matrix(-0.9816 0.1908 -0.1908 -0.9816 242.1492 409.5673)" fill="#282829" width="98.628" height="98.628"/>
			
				<rect x="130.04" y="51.494" transform="matrix(-0.9816 0.1908 -0.1908 -0.9816 374.6486 165.5419)" fill="#282829" width="98.628" height="98.628"/>
			
				<rect x="245.675" y="129.492" transform="matrix(-0.9816 0.1908 -0.1908 -0.9816 618.6772 298.0413)" fill="#282829" width="98.629" height="98.629"/>
			
				<rect x="323.674" y="13.856" transform="matrix(-0.9816 0.1908 -0.1908 -0.9816 751.1763 54.0121)" fill="#282829" width="98.628" height="98.628"/>
			
				<rect x="14.407" y="-26.504" transform="matrix(-0.9816 0.1908 -0.1908 -0.9816 130.6229 33.0418)" fill="#282829" width="98.628" height="98.628"/>
			
				<rect x="92.405" y="-142.14" transform="matrix(-0.9816 0.1908 -0.1908 -0.9816 263.1221 -210.9863)" fill="#282829" width="98.628" height="98.628"/>
			
				<rect x="208.039" y="-64.142" transform="matrix(-0.9816 0.1908 -0.1908 -0.9816 507.1497 -78.4873)" fill="#282829" width="98.628" height="98.628"/>
			
				<rect x="286.037" y="-179.777" transform="matrix(-0.9816 0.1908 -0.1908 -0.9816 639.6476 -322.5143)" fill="#282829" width="98.627" height="98.628"/>
			
				<rect x="127.323" y="554.39" transform="matrix(-0.9816 0.1908 -0.1908 -0.9816 465.2162 1162.6145)" fill="#282829" width="98.627" height="98.628"/>
			
				<rect x="205.32" y="438.755" transform="matrix(-0.9816 0.1908 -0.1908 -0.9816 597.7195 918.5822)" fill="#282829" width="98.628" height="98.628"/>
			
				<rect x="320.947" y="516.76" transform="matrix(-0.9816 0.1908 -0.1908 -0.9816 841.7314 1051.0972)" fill="#282829" width="98.629" height="98.627"/>
			
				<rect x="398.945" y="401.126" transform="matrix(-0.9816 0.1908 -0.1908 -0.9816 974.2268 807.0766)" fill="#282829" width="98.628" height="98.627"/>
			
				<rect x="476.944" y="285.491" transform="matrix(-0.9816 0.1908 -0.1908 -0.9816 1106.7292 563.049)" fill="#282829" width="98.627" height="98.629"/>
			
				<rect x="554.944" y="169.851" transform="matrix(-0.9816 0.1908 -0.1908 -0.9816 1239.2307 319.0093)" fill="#282829" width="98.627" height="98.627"/>
			
				<rect x="439.309" y="91.853" transform="matrix(-0.9816 0.1908 -0.1908 -0.9816 995.2042 186.5104)" fill="#282829" width="98.628" height="98.628"/>
			
				<rect x="517.307" y="-23.78" transform="matrix(-0.9816 0.1908 -0.1908 -0.9816 1127.7042 -57.5152)" fill="#282829" width="98.628" height="98.628"/>
			
				<rect x="401.672" y="-101.778" transform="matrix(-0.9816 0.1908 -0.1908 -0.9816 883.6758 -190.0139)" fill="#282829" width="98.628" height="98.629"/>
			
				<rect x="479.672" y="-217.411" transform="matrix(-0.9816 0.1908 -0.1908 -0.9816 1016.1793 -434.0385)" fill="#282829" width="98.628" height="98.628"/>
			
				<rect x="514.579" y="479.123" transform="matrix(-0.9816 0.1908 -0.1908 -0.9816 1218.2573 939.5705)" fill="#282829" width="98.629" height="98.629"/>
			
				<rect x="592.583" y="363.476" transform="matrix(-0.9816 0.1908 -0.1908 -0.9816 1350.7627 695.5208)" fill="#282829" width="98.627" height="98.628"/>
			
				<rect x="-103.947" y="398.398" transform="matrix(-0.9816 0.1908 -0.1908 -0.9816 -22.8393 897.621)" fill="#282829" width="98.628" height="98.626"/>
			
				<rect x="-25.954" y="282.762" transform="matrix(-0.9816 0.1908 -0.1908 -0.9816 109.6553 653.5936)" fill="#282829" width="98.628" height="98.627"/>
			
				<rect x="-141.592" y="204.763" transform="matrix(-0.9816 0.1908 -0.1908 -0.9816 -134.3783 521.0955)" fill="#282829" width="98.629" height="98.629"/>
			
				<rect x="-63.592" y="89.129" transform="matrix(-0.9816 0.1908 -0.1908 -0.9816 -1.8776 277.068)" fill="#282829" width="98.628" height="98.628"/>
			
				<rect x="-179.226" y="11.132" transform="matrix(-0.9816 0.1908 -0.1908 -0.9816 -245.9043 144.5691)" fill="#282829" width="98.628" height="98.628"/>
			
				<rect x="-101.228" y="-104.502" transform="matrix(-0.9816 0.1908 -0.1908 -0.9816 -113.4041 -99.4571)" fill="#282829" width="98.628" height="98.628"/>
			
				<rect x="-66.32" y="592.029" transform="matrix(-0.9816 0.1908 -0.1908 -0.9816 88.6695 1274.15)" fill="#282829" width="98.629" height="98.629"/>
			
				<rect x="11.678" y="476.397" transform="matrix(-0.9816 0.1908 -0.1908 -0.9816 221.1695 1030.1266)" fill="#282829" width="98.628" height="98.628"/>
		</g>
	</g>
</g>
<g id="bg_x5F_path">
	<g>
		<path fill="#282829" d="M384.02,32v0.02c25.438,0,49.408,9.85,67.492,27.736c18.029,17.832,28.144,41.589,28.488,66.918V384
			c0,52.919-43.053,95.984-95.961,96H127.981v-0.02c-25.444,0-49.416-9.854-67.501-27.745C42.448,434.396,32.338,410.627,32,385.29
			V128c0-52.919,43.052-95.984,95.961-96H384.02 M512,0H127.961C57.287,0.021,0,57.32,0,128v257.489
			C0.811,455.486,57.793,511.98,127.981,511.98H0V512h384.039C454.713,511.979,512,454.68,512,384V126.473
			C511.17,56.494,454.195,0.02,384.02,0.02H512V0L512,0z"/>
	</g>
</g>
<g id="blocking_enabled">
	<path fill="#C52026" d="M255.32,19.307c-131.168,0-237.5,106.332-237.5,237.5c0,131.17,106.332,237.5,237.5,237.5
		c131.167,0,237.5-106.33,237.5-237.5C492.82,125.639,386.486,19.307,255.32,19.307z M366.689,145.438
		c29.747,29.748,46.131,69.299,46.131,111.369c0,28.387-7.47,55.619-21.457,79.475L175.847,120.764
		c23.854-13.988,51.088-21.457,79.473-21.457C297.391,99.307,336.941,115.689,366.689,145.438z M143.951,368.177
		c-29.748-29.747-46.131-69.3-46.131-111.37c0-28.385,7.469-55.619,21.459-79.475L334.795,392.85
		c-23.854,13.988-51.09,21.457-79.475,21.457C213.25,414.307,173.699,397.924,143.951,368.177z"/>
</g>
</svg>
